<svg xmlns="http://www.w3.org/2000/svg" width="267.756" height="281.147" viewBox="0 0 267.756 281.147"><g data-name="Group 119" fill="#285063"><path data-name="Path 62" d="M134.073 94.698c3.116 2.927 5.596 6.463 8.758 9.332 6.69 6.07 12.754 13.186 19.425 19.51 2.166 2.055 5.722 6.603 9.092 6.644 3.112.036 6.036-3.146 7.902-5.19 3.033-3.328 5.542-4.694 9.823-5.994 4.336-1.315 3.986-3.687 6.284-6.932 2.58-3.095 2.059-3.131.026-6.054-1.937-2.787.935-5.186-.43-7.79-.58-1.106-2.404-1.652-3.434-2.212-2.248-1.224-3.056-2.286-5.304-1.118-1.684.874-1.326 1.621-2.925.558-1.73-1.15-3.367-4.094-4.9-5.62-3.418-3.401-7.186-6.438-10.8-9.622-2.095-1.845-7.307-5.65-6.43-8.339.385-1.177 1.213-.431 1.042-2.025-.03-.275-.538-.887-.639-1.075a32.948 32.948 0 00-2.399-4.576c-2.118-2.704-4.103.614-6.703-.117-1.53-.431-1.833-2.73-3.282-3.02s-2.62 1.225-3.65 1.972a8.5 8.5 0 01-4.085 1.853c-1.123.168-2.655-.255-3.521.692-.894.978-.811 3.287-1.08 4.49a24.457 24.457 0 01-2.187 6.2 18.905 18.905 0 01-3.686 4.811c-1.147 1.095-3.66 2.344-4.106 3.887-.81 2.81 5.332 7.97 7.21 9.735zm56.378 4.15c2.604 1.659-.895 6.901-1.12 9.307-.074.782 1.375 9.439-1.362 7.414-1.62-1.2-.804-8.765-.714-10.572.088-1.832-.228-8.805 3.195-6.15zm-49.114-29.956c1.307-.653 3.78-.622 5.27-.906a14.25 14.25 0 014.892-.343 19.739 19.739 0 001.989.57c1.248.038 1.16-.567 2.119-.654.555-.05 2.971-.174 1.875 1.564-1.432 1.248-4.02.872-5.75 1.028a57.558 57.558 0 00-6.296.94c-.867.174-3.952 1.429-4.826.824-1.288-.877-.396-2.463.726-3.023zm-6.547 11.646c1.394-1.698 2.526-4.172 4.459-5.334s4.64-1.035 6.807-1.565a31.334 31.334 0 017.007-1.291c5.516-.06 9.168 6.274 12.838 9.808 7.23 6.963 19.464 13.702 18.475 25.158-.217 2.52.416 5.227-.035 7.699-.492 2.696-2.784 4.042-4.797 5.589-2.338 1.8-4.275 3.856-6.445 5.806-2.012 1.81-2.938.586-4.77-1.07a126.959 126.959 0 01-14.08-13.79c-4.509-5.079-9.199-10.08-13.84-15.033-2.11-2.25-4.36-4.37-6.417-6.67-.955-1.068-2.836-2.703-2.812-4.298.025-1.857 2.533-3.7 3.61-5.009z"/><path data-name="Path 63" d="M46.494 193.655a127.166 127.166 0 0015.989 28.603 75.015 75.015 0 014.935 7.136c1.146 2.018 1.681 4.478 3.293 6.176 3.878 4.08 7.17.71 11.692-.104 11.431-2.057 23.033-4.103 34.114-7.685 11.049-3.578 21.946-7.49 33.041-10.9 5.26-1.617 10.187-4.061 15.491-5.595 5.686-1.642 11.312-3.476 16.92-5.367 5.802-1.958 11.693-3.769 17.419-5.943 5.062-1.921 11.036-3.635 15.582-6.595 1.47-.955 2.853-1.759 3.018-3.541.153-1.655-1.297-3.39-.413-4.993.77-1.397 3.97-3.617 5.262-4.53 1.598-1.132 4.389-1.19 4.541-3.488.176-2.644-1.994-6.462-2.79-9.026a56.219 56.219 0 00-2.76-7.646c-2.238-4.69-5.918-8.515-7.577-13.47a49.341 49.341 0 00-3.418-7.977c-.865-1.59-2.63-3.528-3.007-5.323-.67-3.181 4.14-6.35 6.052-8.355q3.37-3.532 6.737-7.071c1.228-1.29 3.628-3.091 3.915-5.002.31-2.069-1.688-3.463-.591-5.616.784-1.543 2.784-2 3.646-3.478 1.925-3.305-4.28-9.998-6.361-12.547-4.044-4.956-8.044-9.953-12.226-14.796-8.33-9.647-16.585-19.6-25.56-28.653a95.224 95.224 0 00-14.159-11.326c-2.597-1.777-5.167-3.839-7.912-5.365-2.659-1.479-4.156.032-6.554 1.569-9.702 6.22-17.61 14.342-26.11 22.024q-14.335 12.95-28.601 25.975c-4.584 4.194-9.171 8.385-13.597 12.746-1.765 1.739-3.501 4.062-5.719 5.26-1.678.905-3.363.307-5.011.952-2.457.963-4.755 2.287-7.33 3.166-2.765.944-5.53 1.905-8.259 2.949-5.106 1.953-10.086 4.232-15.279 5.956-2.456.818-5.56 1.065-7.228 3.224a21.5 21.5 0 00-1.552 3.247c-.591 1.112-1.532 2.05-2.03 3.209-1.705 3.962 2.015 7.515 2.992 11.182-1.988 1.086-4.536.339-6.323 1.604-1.645 1.163-2.214 3.774-3.011 5.5-1.861 4.03-5.447 7.046-3.71 11.795 1.62 4.432 5.165 8.479 7.555 12.548 2.945 5.017 4.778 10.34 7.327 15.515 2.375 4.823 5.564 9.004 7.567 14.056zm174.748-80.348c-.292 1.399-2.402 2.797-3.347 3.719q-2.035 1.984-4.074 3.964c-2.634 2.565-5.172 5.288-7.987 7.655-5.423 4.559-11.112 8.607-16.307 13.474-5.474 5.127-10.879 10.328-16.428 15.373-5.396 4.903-10.933 9.66-16.789 14.01-3.031 2.251-6.193 4.314-9.178 6.63-2.207 1.711-4.417 4.21-7.305 4.609 2.204-2.986 5.223-5.116 7.808-7.73a80.849 80.849 0 018.821-7.774c6.421-4.87 12.31-10.517 18.634-15.542 11.671-9.277 23.136-19.1 33.908-29.411a166.925 166.925 0 008.141-8.374c.895-.991 4.967-4.737 4.103-.603zm-31.225 58.245c-4.93 1.238-9.817 2.638-14.71 4.016-5.02 1.414-10.037 2.71-15.129 3.833-2.17.48-4.34.963-6.48 1.563-1.393.392-5.333 2.345-5.874.972 3.573-2.812 7.184-2.873 11.335-4.317 4.525-1.572 9.037-3.172 13.585-4.682 4.99-1.648 9.997-3.25 15.037-4.738q3.287-.97 6.595-1.872c1.633-.444 5.454-2.363 6.887-1.088-3.175 4.19-6.28 5.066-11.246 6.314zm.809 3.279l-6.813 1.98c2.427-2.334 2.888-2.475 6.812-1.98zm-15.025 3.386c-.439.951-2.28 1.461-3.526 1.87a3.355 3.355 0 013.526-1.869zm-3.694 1.925a7.913 7.913 0 00-.538.199c-2.844 1.209-6.164 1.747-9.148 2.54-3.273.872-6.539 1.763-9.765 2.797-2.526.809-4.994 1.714-7.69 1.213a120.669 120.669 0 0113.619-4.734c2.474-.723 4.972-1.128 7.49-1.641 1.7-.347 4.636-2.004 6.03-.372zm24.568-17.24q-4.023 1.037-8.015 2.183c-5.095 1.458-10.141 3.059-15.195 4.652-2.57.81-5.15 1.588-7.722 2.382-1.226.377-4.502 2.173-5.647 1.094.935-1.902 3.466-3.29 5.068-4.589q3.221-2.608 6.38-5.29 6.309-5.364 12.33-11.055c3.706-3.515 7.115-7.51 11.197-10.6 1.43-1.083 1.638-1.513 2.89-.44 1.448 1.25 2.307 4.998 2.909 6.733.865 2.49 4.724 11.09 2.678 13.14-1.135 1.135-5.263 1.376-6.875 1.792zM89.794 95.18q8.13-7.934 16.517-15.592c11.351-10.35 22.715-20.666 33.974-31.116 5.16-4.795 10.763-9.94 16.656-13.812 4.083-2.68 9.505 3.498 12.661 5.825 12.316 9.062 21.512 20.867 31.802 32.035 4.935 5.355 9.335 11.165 14.045 16.71a67.818 67.818 0 016.666 9.126c.886 1.485 2.256 3.13 1.595 4.857-.403 1.05-2.12 1.992-2.918 2.695a80.07 80.07 0 00-3.873 3.67c-2.507 2.522-4.878 5.174-7.386 7.697-5.312 5.352-11.1 10.278-16.764 15.251-11.504 10.105-23.772 19.304-35.18 29.505a989.698 989.698 0 00-15.619 14.266c-1.359 1.269-3.842 3.657-5.902 3.732-1.9.07-3.666-1.775-5.015-2.866-6.828-5.652-13.758-11.2-19.93-17.58-6.192-6.401-12.494-12.62-19.077-18.618-6.025-5.489-10.366-12.34-16.299-17.869-1.46-1.362-5.497-4.097-5.781-6.313-.255-1.981 2.452-4.266 3.575-5.56 5.007-5.757 10.81-10.731 16.253-16.043zm36.659 86.226c-5.884-5.233-12.167-10.293-17.544-16.046-4.813-5.15-9.124-10.716-14.17-15.655-5.025-4.917-10.983-9.107-15.663-14.336a72.826 72.826 0 00-7.237-7.277c-1.627-1.374-5.442-2.822-6.019-4.944-.223-.814.241-3.021 1.294-3.253.828-.18 1.66.977 2.222 1.466a60.2 60.2 0 016.88 7.087c9.027 10.911 19.574 20.322 29.517 30.387a195.772 195.772 0 0016.042 15.078c5.12 4.13 10.204 9.253 17.017 9.526.044 1.657-2.811 4.317-4.569 4.074-2.646-.365-5.867-4.414-7.77-6.108zm.834 6.781c-.46.845-4.577 1.06-5.362 1.203-4.31.785-8.626 1.543-12.939 2.317a177.464 177.464 0 01-27.571 2.978c.158-1.085 2.008-3.496 2.844-4.235 1.598-1.412 1.43-.657 2.7.257 3.087 2.22 8.039.372 11.592-.061 8.644-1.05 17.225-2.654 25.855-3.67.896-.108 3.876-.614 2.881 1.21zm-77.375-74.933c2.992-1.169 5.902-2.493 8.843-3.782a55.033 55.033 0 019.028-3.283c2.04-.502 5.064-2.115 7.135-1.925-3.568 3.371-6.639 7.528-9.747 11.318-1.988 2.42-4.963 8.016-1.98 10.354 1.738 1.362 4.043 2.07 5.828 3.516a41.135 41.135 0 015.244 5.264 89.979 89.979 0 009.94 9.316c3.81 3.295 7.51 6.723 10.985 10.37 3.254 3.415 5.853 7.417 9.053 10.829 3.101 3.306 6.934 6.178 10.202 9.379s6.678 6.167 10.183 9.097c-1.804 1.325-5.145 1.256-7.28 1.684-3.481.7-7.004 1.175-10.53 1.58s-7.066.724-10.596 1.113c-3.266.362-5.713.58-8.338-1.678-5.03-4.325-8.52-10.804-12.674-15.944-4.619-5.715-7.486-12.354-10.35-19.081-2.846-6.684-5.43-13.089-9.21-19.315-1.869-3.074-3.575-6.244-5.322-9.389-.918-1.654-3.617-4.762-3.685-6.68-.074-1.867 1.738-2.145 3.271-2.743zm-4.416 8.26c1.914 1.452 3.095 5.151 4.215 7.248a52.588 52.588 0 004.257 6.976c3.486 4.627 5.323 10.997 7.596 16.369 2.347 5.548 4.555 10.802 7.96 15.818 3.097 4.564 6.617 8.83 9.888 13.265 2.525 3.424 5.285 4.319 2.366 8.192-4.61 6.114-6.874-2.09-9.212-5.832-3.734-5.978-6.95-12.133-10.203-18.384-5.815-11.175-11.733-22.306-17.38-33.567-.94-1.876-3.483-5.414-3.413-7.59.07-2.065 2.321-3.714 3.926-2.495zm-6.097 4.722c2.304 1.142 3.039 4.417 4.027 6.566a158.25 158.25 0 003.53 7.122c2.664 5.086 5.526 10.066 8.16 15.167 5.335 10.335 10.38 20.768 16.032 30.942 2.029 3.645 5.974 11.442 10.763 11.308 2.45-.07 5.002-.777 7.483-.958 2.718-.198 5.436-.323 8.137-.703 5.598-.787 11.19-1.758 16.743-2.81 4.806-.91 10.99-3.581 15.87-2.275-4.364 2.488-10.435 3.42-15.34 4.23-5.922.979-11.952 1.558-17.906 2.319-5.433.693-11.984 2.041-17.458 1.427-4.22-.475-7.649-7.773-9.796-10.985a177.894 177.894 0 01-9.37-16.11c-2.714-5.157-4.615-10.47-6.96-15.783-2.28-5.16-4.965-10.133-7.68-15.076-1.263-2.293-2.565-4.562-3.758-6.89-1.081-2.12-3.078-4.963-2.473-7.489zm-1.72 8.633c2.574.678 4.14 6.067 5.287 8.063 4.77 8.306 8.149 17.105 12.237 25.74a102.268 102.268 0 006.902 12.52c2.233 3.391 3.854 7.021 6.297 10.295 2.13 2.853 4.255 7.399 7.343 9.29 2.861 1.754 6.117.493 9.161.13 4.503-.533 9.013-.294 13.508-1.016 4.203-.675 8.339-1.426 12.575-1.861 8.982-.925 17.607-3.573 26.321-5.784 9.209-2.333 18.392-4.491 27.46-7.354 9.037-2.85 17.797-5.785 27.025-7.922 4.68-1.084 7.193-4.812 10.373-8.122 2.538-2.644 6.366-5.095 5.924-9.22-.47-4.39-2.942-9.259-4.53-13.335-1.17-3-4.48-7.622-1.98-10.695 3.633-4.467 6.128 1.93 7.462 4.783 1.815 3.882 2.874 7.959 4.987 11.726 2.262 4.037 4.91 7.581 6.56 11.954a80.576 80.576 0 013.215 12.252c-1.683 1.407-4.161 1.632-6.198 2.227-2.477.727-4.912 1.591-7.315 2.533-4.791 1.877-9.354 4.243-14.093 6.232-10.006 4.2-20.528 7.575-30.817 11.016-20.531 6.868-41.362 13.38-62.595 17.684-4.961 1.006-10.111 2.526-15.149 2.987-1.466.134-3.854.36-5.108-.5-1.478-1.016-2.569-4.093-3.541-5.66-5.1-8.248-10.164-16.42-14.8-24.946-8.694-15.99-16.837-32.316-27.567-47.085-.661-.91-3.622-3.664-2.853-5.085.348-.611 3.18-1.038 3.912-.845zm-9.199 16.245a25.333 25.333 0 016.834 12.069c-2.695-3.8-5.306-7.646-6.83-12.068zm8.276 7.346c-1.243-2.62-4.008-5.956-3.879-8.87.077-1.697 1.115-5.262 3.31-4.231 2.48 1.165 4.655 6.815 6.167 9.02 1.962 2.863 4.168 5.554 5.897 8.57 1.968 3.434 3.176 7.226 4.987 10.745 1.688 3.28 3.612 6.433 5.395 9.663 3.937 7.137 7.597 14.414 11.817 21.396 2.127 3.522 4.934 6.864 6.75 10.544 1.346 2.73 1.78 5.259 4.932 6.528 3.341 1.342 7.826-.114 11.25-.662q5.622-.903 11.187-2.112c8.184-1.786 16.282-4.102 24.35-6.346 7.703-2.145 15.138-5.13 22.855-7.187 7.338-1.956 14.596-4.227 21.713-6.896 3.594-1.347 6.965-3.26 10.592-4.492 3.67-1.246 7.438-2.089 11.07-3.463 3.74-1.415 7.37-3.096 11.021-4.715 2.424-1.072 5.906-3.454 8.697-2.821-3.154 2.635-5.876 5.757-9.596 7.633a105.064 105.064 0 01-12.887 5.052c-8.437 2.927-16.867 5.99-25.443 8.472-17.484 5.057-34.4 11.967-51.942 16.753-7.57 2.066-15.149 4.073-22.716 6.158-3.136.866-8.715 2.722-11.892 1.636-2.518-.86-4.945-4.54-6.544-6.582-10.303-13.15-17.522-27.742-25.374-42.374-3.83-7.15-8.234-14.083-11.712-21.418zm.584 8.83c2.835 1.136 4.754 7.358 6.113 9.9 1.946 3.639 3.913 7.266 5.825 10.925 3.552 6.792 6.541 13.884 10.998 20.16 3.826 5.382 7.396 11.334 11.649 16.361 1.872 2.21 4.267 5.687 7.105 6.632 2.808.935 6.303-.236 9.075-.857a375.988 375.988 0 0039.692-11.293c13.14-4.496 26.307-8.8 39.591-12.84 6.68-2.031 13.216-4.485 19.892-6.525 3.322-1.015 6.655-1.99 9.925-3.179 2.183-.795 5.365-3.137 7.733-2.254-3.285 2.274-7.171 3.37-10.882 4.714-3.88 1.408-7.739 2.88-11.612 4.299-7.406 2.707-15.016 4.691-22.452 7.282-13.635 4.75-27.398 9.21-41.152 13.61-6.715 2.146-13.37 4.346-20.27 5.837-6.944 1.5-14.033 2.278-20.951 3.877-3.267.755-3.574.78-5.149-2.213a90.216 90.216 0 00-5.397-8.435c-4.255-6.27-8.511-12.554-12.468-19.019-3.37-5.511-4.884-12.008-7.985-17.74-3.416-6.317-6.346-12.692-9.275-19.242z"/></g></svg>