<svg xmlns="http://www.w3.org/2000/svg" width="275.833" height="55.741" viewBox="0 0 275.833 55.741"><path data-name="Path 103" d="M4.06 42.584q1.408-.41 2.812-.828c2.519-.747 4.851-.754 6.57 1.659a2.255 2.255 0 001.884.925c7.073.378 13.981 2.323 21.122 2.153 2.683-.063 5.374.229 8.063.344a7.706 7.706 0 016.117 2.692 6.04 6.04 0 005.136 2.127c3.995-.018 7.988.086 11.992.055 5.5-.043 10.981-.256 16.449-.713 6.087-.509 12.148-1.314 18.23-1.9 4.571-.436 8.768-2.526 13.431-2.8 1.317-.076 2.922-.792 4.482-.92 2.559-.21 5.117-.448 7.668-.742 8.362-.964 16.7-2.127 25.085-2.893 8.261-.756 16.541-1.362 24.742-2.6s16.455-2.645 24.657-3.36c13.108-1.141 25.87-3.776 38.707-6.259 1.611-.311 3.133-1.282 4.971-.944-1.315 2.106-1.319 2.1-3.206 2.69a236.262 236.262 0 01-28.885 6.812c-17.8 3.241-35.586 6.568-53.511 9.071-1.88.262-3.663.36-5.094-1.219-1.157-1.276-2.746-1.524-4.342-1.686-1.439-.145-2.955-.542-3.954 1.055a4.3 4.3 0 00.272 5.446c2.738 2.834 5.365 6.09 10.206 4.626 1.474-.446 3.159-.2 4.747-.267 2.686-.117 5.4-.034 8.052-.386 11.749-1.561 23.493-3.166 35.214-4.925a159.743 159.743 0 0016.2-3.137c3.664-.946 7.348-1.792 11.013-2.72 8.826-2.237 18.01-3.643 24.839-10.726 2.319-2.4 2.868-3.03 1.543-5.854-1.08-2.3-.946-2.675 1.079-3.92a5.4 5.4 0 012.808-.7c2.949-.071 5.751-1.079 8.7-1.238 2.361-.127 3.237-1.139 3.6-3.448a12.686 12.686 0 00.261-4.368c-.541-2.884-1.11-5.773-1.428-8.686-.206-1.889-1.238-2.769-2.856-2.556-4.33.571-8.759-.5-13.033.852a1.691 1.691 0 01-1.387-.092c-1.819-1.79-4.358-1.5-6.51-2.125a22.335 22.335 0 00-10.1-.821c-6.495 1.09-13.054 1.834-19.6 2.539-10.82 1.163-21.733.463-32.566 1.532-11.2 1.105-22.5.72-33.693 2.058-2.545.3-5.085.673-7.638.885-9.018.749-18.074.955-27.068 2.09-2.76.349-5.746 1.27-8.337.261-2.062-.8-4-.667-6.012-.866-1.091-.107-2.183-.205-3.275-.313a81.768 81.768 0 00-22.307.538c-9.519 1.674-18.836 4.267-28.212 6.594-3.1.769-5.76 2.463-8.9 3.19a93.829 93.829 0 00-14.6 4.741c-5.519 2.283-10.815 5.106-16.19 7.734-2.926 1.43-5.51 3.573-8.83 4.186-1.533.283-2.094 1.582-2.7 2.777a2.758 2.758 0 00.24 3.412 3.2 3.2 0 003.342.968zm267.694-26.416c-1.514 2.9-4.084 1.918-7.144 2.112 2.426-2.272 5.181-.798 7.144-2.112zM254.68 7.521a1.11 1.11 0 011.23 1.071c.27 1.687.449 3.39.555 4.223.429 2.055.68 3.252.927 4.449a2.811 2.811 0 01-.369 2.451c-.373.473-.768 1-1.472.885a1.25 1.25 0 01-1.017-1.334 1340.86 1340.86 0 01-.527-10.612c-.024-.514.123-1.053.673-1.133zm.314 18.827c.8.832 1.431 1.994.485 2.943-2.228 2.236-4.229 4.794-7.254 6.08a93.264 93.264 0 01-17.9 5.338c-5.278 1.081-10.472 2.472-15.706 3.709a12.675 12.675 0 01-4.07.711c-9.172 1.5-18.076 3.161-27.042 4.364a238 238 0 01-27.384 2.5c-2.352.042-3.856-1.269-5.55-2.408a1.058 1.058 0 01-.426-1.286 1.024 1.024 0 011.262-.48 4.535 4.535 0 011.664.694c3.5 2.825 7.365 2.75 11.426 1.605a18.293 18.293 0 013.617-.585c6.608-.487 13.025-2.255 19.59-2.939 6.964-.724 13.595-2.933 20.426-4.163a351.242 351.242 0 0036.019-8.373 9.864 9.864 0 005.565-3.813 33.636 33.636 0 012.8-3.39c.647-.681 1.474-1.547 2.478-.507zm-109.6-15.17a56.5 56.5 0 006.188-.7c7.65-.941 15.337-1.192 23.028-1.591 6.321-.328 12.673-.621 18.991-1.215A264.868 264.868 0 01220.314 6.5c3.829.027 7.389-1.146 11.125-1.444 4.744-.378 9.46-1.133 14.18-1.79 1.382-.192 2.058.175 2.843 1.485 3.052 5.091 2.531 10.56 2.106 16.04a3.492 3.492 0 01-2.933 3.3c-2.968.726-5.882 1.755-8.886 2.244-11.8 1.923-23.43 4.8-35.471 5.482-8.012.453-15.954 2.2-23.918 3.437-10.274 1.59-20.66 2.1-30.973 3.3-9.35 1.09-18.7 2.223-28.043 3.335a15.147 15.147 0 01-1.823.174c-2.042 0-2.525-.47-2.734-2.568a3.692 3.692 0 01-.012-1.1c1.231-5.926-.686-11.654-1.107-17.474-.158-2.182-1.593-4.1-1.488-6.651a220.007 220.007 0 0132.218-3.096zm-33.232 17.9c.686 4.141.055 8.288-.226 12.413-.1 1.512-1.588 2.381-3.127 2.711a95.348 95.348 0 01-15.923 2.347c-2.945.124-5.811.711-8.723.883-7.552.447-15.111.764-22.669 1.115a15.328 15.328 0 01-2.193-.094c-3.056-.3-3.161-.438-3.1-3.585.074-3.883.13-7.767.192-11.543 1.152-.557 1.841.205 2.639.39.653.151 1.484.17 1.6-.426.606-3.18 2.988-1.576 4.579-1.647 1.329-.059 2.969 1.25 3.029-1.417.01-.418.442-.373.834-.336 2.739.262 2.741.248 2.589-2.169 1.39-.044 1.97 2.455 3.8 1.151 1.373-.979 2.511.965 4.085.35 1.888-.737 3.875-.851 5.595.965 1.144 1.208 2.585.449 3.586-.5 1.5-1.427 2.918-1.315 4.609-.377 2.138 1.186 2.175 1.106 2.4-1.6.015-.181.235-.344.359-.516a1.937 1.937 0 01.688.158c.878.612 2.085 2.2 2.581 1.588.92-1.134 2.829-1.1 3.085-2.444.317-1.656 1.071-1.13 2.04-.95a3.525 3.525 0 012.273.976 2.3 2.3 0 002.892.855c1.622-.702 2.289.373 2.51 1.705zm-57.654-9.684a52.525 52.525 0 0111.161-3.434c6.673-1.417 13.3-3.233 20.15-3.715 6.322-.445 12.637-.923 18.971.1 4.146.666 4.485.837 5.585 5.721-1.3-1.142-1.935-3.708-4.132-1.691-2-2.534-3.685-.141-5.595.069-1.98.218-4.544 1.3-6.569-1.115-1.495-1.781-2-1.476-3.633.3-.24.26-.483.761-.711.753-2.485-.09-2.347 1.937-2.667 3.455-1.06-.04-1.38-.791-1.841-1.322-1.013-1.166-2.047-2.042-3.781-1.43a10.307 10.307 0 01-2.177.052c-1.33.142-1.91-1.652-3.289-1.245-.967.286-1.123 1.878-2.817 1.387-.623-.18-1.6 1.644-3.345.973-1.317-.506-1.253 2.317-3.338 2.162-1.4-.1.068 1.9-.635 2.795-1.021.341-1.451-.615-2.123-1.041-.823-.521-1.611-1.254-2.666-.916a4.976 4.976 0 01-4.512-.562c-1.029-.649-1.806-.172-1.721 1.3.069 1.2.964 2.255.54 3.841-1.672-.555-1.888-1.879-2.326-2.923-.91-2.171-.677-2.524 1.471-3.514zm-27.965 9.9a13.137 13.137 0 013.14-1.879c5.269-1.908 10.533-3.852 15.891-5.482 3.1-.944 3.454-.581 4.669 2.4a28.914 28.914 0 012.327 8.291c.566 2.955.158 5.761.006 8.561-.062 1.127-.406 2.276-1.938 2.113-7.281-.771-14.64-.138-21.908-1.255-1.673-.258-2.134-.874-2.267-2.546a24.792 24.792 0 00-1.473-5.276c-.865-2.747-.763-3.233 1.552-4.931zm-8.51 2.64c1.841-1.019 2.375-.841 3.235 1.209.419 1 .745 2.043 1.07 3.08 1.139 3.628.621 4.49-3.03 5.1-3.47.582-4.379-.191-4.351-3.7.03-4.008.03-4.008 3.075-5.693z" fill="#373e48"/></svg>