<svg xmlns="http://www.w3.org/2000/svg" width="183.33" height="196.505" viewBox="0 0 183.33 196.505"><path data-name="Path 50" d="M14.6 115.112a6.043 6.043 0 002.915 6.197 26.18 26.18 0 0013.059 4.144c2.53.18 4.79.598 6 3.32.692 1.551 2.31 2.282 3.914 2.72a8.83 8.83 0 008.947-2.583 8.234 8.234 0 016.204-2.479 70.736 70.736 0 0010.553-.861c3.8-.572 3.964-.47 4.368 3.221a151.734 151.734 0 011.2 17.851 55.406 55.406 0 004.075 20.847c.377 1.103.882 2.372 1.23 3.682 1.312 4.965 4.486 8.676 8.257 11.855 5.034 4.243 10.225 3.949 14.975-.507a36.027 36.027 0 005.571-6.478c1.236-1.888 2.551-2.918 5.003-2.443s5.015-.355 5.967-2.594c1.809-4.244 3.398-8.847.147-13.14a5.868 5.868 0 01-.87-5.685c1.24-4.45 2.502-8.901 3.62-13.381 1.232-4.94 1.178-4.982 5.87-2.635 10.578 5.291 21.173 10.504 32.587 13.873a13.159 13.159 0 0011.246-1.659c2.635-1.618 4.126-4.28 6.196-6.404 2.473-2.536 2.64-5.194 1.313-8.201-.547-1.24-1.094-2.488-1.746-3.672-2.904-5.28-6.96-9.731-10.946-14.134-6.004-6.631-12.538-12.783-18.846-19.138-2.083-2.1-2.08-2.235.078-4.053 2.392-2.013 4.83-3.975 7.165-6.05a33.918 33.918 0 007.83-9.83 9.5 9.5 0 00-.638-10.06 9.562 9.562 0 01-1.922-6.726 11 11 0 00-.16-3.24c-.675-3.095-3.74-5.524-6.494-4.939-3.907.83-7.837 2.176-10.061 5.644a7.64 7.64 0 01-7.4 3.905c-1.342-.042-2.692.371-4.046.45-2.455.143-2.85-.17-3.048-2.626-.486-5.954-.896-11.914-1.347-17.872-.91-12.016-6.149-21.439-16.348-28.143-2.981-1.958-6.51-1.67-9.53-3.272-1.053-.56-2.292.454-3.314 1.175a26.7 26.7 0 00-8.947 10.878c-2.854 6.163-5.864 12.242-7.708 18.829-.681 2.436-1.352 2.585-3.489 1.147-4.507-3.032-8.937-6.185-13.43-9.24a4.013 4.013 0 01-2.018-3.313c-.133-2.943-1.72-5.063-3.96-6.816-1.067-.834-2.057-1.77-3.052-2.693-4.436-4.11-10.684-3.316-13.982 1.81a11.906 11.906 0 01-2.376 3.272 13.947 13.947 0 00-5.288 8.444 12.648 12.648 0 01-1.221 3.017c-4.04 8.195-3.486 16.489.561 24.28 4.324 8.327 9.715 16.025 17.29 21.89a15.939 15.939 0 011.818 1.636c1.68 1.781 1.57 2.395-.78 3.502-2.335 1.1-4.723 2.087-7.093 3.11a132.057 132.057 0 00-19.569 10c-5.21 3.368-7.744 8.09-8.33 14.168zm103.665 20.131a129.5 129.5 0 01-4.45 16.492 4.274 4.274 0 01-3.821 3.094 10.244 10.244 0 00-6.167 3.666c-2.751 3.082-3.06 5.185-1.087 8.844a13.618 13.618 0 001.336 2.039 3.718 3.718 0 01.15 4.86 28.419 28.419 0 01-5.656 6.376 7.473 7.473 0 01-8.773.71 18.346 18.346 0 01-8.054-8.88c-1.05-2.35-1.889-4.795-2.821-7.198-.642-1.642-1.262-3.293-1.922-4.927-2.748-6.81-1.93-14.104-2.921-21.151-.586-4.18.173-8.393-.503-12.548-.27-1.652.31-2.673 1.907-3.01a110.725 110.725 0 0018.312-5.482 3.439 3.439 0 013.463.6 174.1 174.1 0 0019.404 12.699 3.207 3.207 0 011.602 3.811zm-45.078-17.157c.038-4.055.847-8.075.808-12.154-.01-1.213.884-1.602 2.007-1.116a13.575 13.575 0 012.172 1.104c3.954 2.635 7.92 5.256 11.81 7.982 2.315 1.623 2.199 2.285-.44 3.493-1.107.509-2.27.895-3.409 1.337a55.959 55.959 0 01-9.06 2.37c-2.944.51-3.915-.182-3.888-3.016zM60.546 89.644c-.769-.646-.803-1.546.165-1.934 2.868-1.152 5.783-2.195 8.707-3.201 1.6-.552 2.239.36 2.337 1.824.229 3.364-.884 6.563-.954 10.23-4.19-1.683-7.192-4.35-10.255-6.92zm64.09-11.265c-4.443-2.046-7.596-5.175-11.602-7.827 3.212-2.6 6.847-2.492 10.06-3.502.653-.205 1.206.584 1.355 1.26.719 3.137 1.408 6.289.192 10.068zm3.058 7.896c3.851 1.44 6.39 4.203 8.93 6.928.976 1.047.473 2.069-.64 2.647a66.632 66.632 0 01-6.577 3.13c-1.728.67-2.435.03-2.356-2 .138-3.472.412-6.934.646-10.708zm-4.712-4.898a6.476 6.476 0 012.164 4.618 98.692 98.692 0 01-.347 12.593 5.4 5.4 0 01-3.216 4.819c-1.584.767-3.17 1.534-4.768 2.274-4.68 2.153-9.367 4.29-13.43 6.151-1.367.61-2.143.885-2.847 1.286-2.798 1.593-5.34 1.204-7.992-.544-5.32-3.505-10.873-6.643-15.953-10.529-1.676-1.283-2.55-2.628-2.304-4.788.477-4.175.828-8.364 1.192-12.55a3.271 3.271 0 012.647-3.196c5.951-1.382 11.05-5.075 17.195-6.064 3.566-.575 6.76-2.701 10.394-3.412 1.527-.299 2.949-.601 4.308.263 4.457 2.824 9.055 5.442 12.96 9.076zm-2.806 45.482c-.908 2.95-1.346 3.107-3.98 1.642a110.8 110.8 0 01-15.338-9.992c-1.862-1.481-1.802-2.145.263-3.1 6.406-2.967 12.828-5.897 19.248-8.833 1.082-.495 2.204-1.184 3.154.147.001.54.008.943.001 1.346a67.877 67.877 0 01-3.345 18.786zm24.652-26.335c8.244 8.624 17.022 16.743 24.39 26.195 1.951 2.504 3.145 5.374 4.613 8.116a3.942 3.942 0 01-.19 4.268c-2.42 3.47-5.037 6.771-9.262 8.25a8.979 8.979 0 01-6.354.34c-6.93-2.358-13.89-4.6-20.348-8.192-4.38-2.438-9.027-4.386-13.471-6.715-3.007-1.575-3.17-1.95-2.178-5.165a76.046 76.046 0 003.75-19.932 6.229 6.229 0 014.42-6.135 54.433 54.433 0 007.302-3.57 3.7 3.7 0 014.802.491c.813.719 1.786 1.27 2.529 2.046zM130 65.126c1.183-.269 2.429-.247 3.629-.458 2.323-.405 3.732.339 4.79 2.621 1.956 4.224 3.733 4.846 8.447 4.54a11.165 11.165 0 006.933-2.79c1.872-1.6 3.18-.97 3.795 1.398a10.122 10.122 0 01-1.368 7.429 37.636 37.636 0 01-9.138 10.297c-5.735 4.452-5.716 4.503-11.21.007-2.095-1.718-4.09-3.567-6.227-5.234a5.554 5.554 0 01-2.309-4.9 65.149 65.149 0 00-.244-8.933c-.303-2.768.29-3.388 2.906-3.98zm-47.685-23A80.573 80.573 0 0193.02 18.518c2.853-4.42 4.779-5.103 9.96-3.868a20.625 20.625 0 017.25 3.583 32.5 32.5 0 0110.127 12.455c1.08 4.544 2.561 8.885 2.713 13.596.165 5.137.904 10.265.903 15.43 0 3.155.016 3.338-3.076 4.286-3.37 1.032-6.797 1.887-10.21 2.776a5.821 5.821 0 01-5.353-1.163q-10.515-8.358-21.057-16.689c-2.252-1.787-2.715-3.856-1.953-6.802zm-.118 9.483c1.131.748 2.157 1.64 3.244 2.45 5.431 4.044 10.547 8.498 16.176 12.294 2.321 1.565 2.14 2.485-.405 3.524-3.51 1.433-7.066 2.761-10.602 4.133l-.232-.601c-3.658 1.42-7.287 2.929-10.988 4.231-2.377.835-2.924.327-2.937-2.092a95.93 95.93 0 012.937-22.86c.484-1.994 1.096-2.223 2.816-1.083zM40.87 70.273c-1.116-2.288-2.934-4.233-4.417-6.345-5.704-8.124-6.597-16.678-2.295-25.704.582-1.221.997-2.521 1.586-3.738.57-1.177.643-2.696 2.09-3.31 1.176.396 1.523 1.526 2.208 2.341a17.9 17.9 0 007.109 5.247c3.68 1.499 6.58.543 9.334-1.904 2.952-2.622 2.914-2.52 6.147-.535 4.175 2.566 7.897 5.753 11.925 8.502 2.35 1.603 3.287 3.49 2.301 6.217-.136.377-.078.822-.215 1.2-2.807 7.504-3.163 15.384-3.36 23.247-.075 2.977-1.323 4.436-3.988 5.29-3.621 1.16-7.203 2.466-10.748 3.828a4.43 4.43 0 01-4.895-.86c-4.716-4.046-9.904-7.6-12.773-13.48zm12.452 19.908a4.841 4.841 0 014.948.807q5.146 3.99 10.342 7.914a4.484 4.484 0 011.952 3.807c.009 5.56.396 11.12-.092 16.68-.14 1.575-.32 3.013-2.196 3.48-4.282.592-8.512 1.697-12.903 1.381a4.063 4.063 0 01-3.576-2.227c-3.25-5.713-9.275-6.691-13.69-1.69-2.533 2.87-4.928 3.153-8.167 2.448a25.914 25.914 0 01-8.739-3.177 4.585 4.585 0 01-2.299-4.773c.517-5.482 3.634-9.427 7.994-12.13a135.825 135.825 0 0126.426-12.52z" fill="#ff5d22"/></svg>