<svg xmlns="http://www.w3.org/2000/svg" width="151.743" height="170.304" viewBox="0 0 151.743 170.304"><g data-name="Group 165" fill="#e5974f"><path data-name="Path 91" d="M128.066 61.706c1.068 2.648 11.364 6.45 9.97 1.048-1.327-2.161-12.064-6.232-9.97-1.048z"/><path data-name="Path 92" d="M130.637 94.455c-.744-2.654-8.205-5.389-7.604-.8.41 3.132 8.263 5.282 7.604.8z"/><path data-name="Path 93" d="M22.931 76.346c1.526-.584 3.904-2.434 2.23-4.074-.95-.93-3.341-.425-4.487-.316-5.353 1.005-2.026 6.03 2.257 4.39z"/><path data-name="Path 94" d="M56.31 14.928c2.247 1.024 3.214-.505 2.471-2.807-.64-1.778-3-6.281-4.954-7.067-2.639-1.056-2.618 1.725-2.065 3.44.653 2.021 2.535 5.517 4.549 6.434z"/><path data-name="Path 95" d="M121.403 27.622c1.506-.708 5.233-1.713 5.875-3.455.698-1.878-.693-2.7-2.145-2.733-1.76-.042-5.043 1.643-5.857 3.27-.898 1.8.028 3.37 2.127 2.918z"/><path data-name="Path 96" d="M92.97 10.097c1.522-1.476 2.862-4.758 3.274-6.845-1.014-5.712-6.525 2.216-6.73 4.596-.228 2.643 1.21 4.424 3.455 2.249z"/><path data-name="Path 97" d="M38.45 74.74c.556 6.228 2.968 11.688 6.217 16.966a159.778 159.778 0 0010.3 15.569c2.157 2.726 4.178 5.141 5.227 8.528.487 1.573 2.173 6.494 1.25 8.001-1.022 1.672-4.078.56-5.567 2.802-1.53 2.305-.858 4.616-.795 7.15.073 2.946-.74 5.656-.185 8.632a31.526 31.526 0 002.968 8.594c.727 1.362 1.809 2.05 2.739 3.242.868 1.11 1.293 2.445 2.148 3.573a15.074 15.074 0 005.387 4.109c5.773 2.95 10.845 2.906 15.866-1.504 2.047-1.797 3.165-3.885 4.808-5.956 1.426-1.792 3.435-2.03 5.156-3.424 3.733-3.024 1.922-6.71.787-10.468-.938-3.11 1.098-3.953 1.422-6.875.304-2.73-1.54-4.287-2.526-6.578-1.943-4.514 1.618-12.915 3.297-17.345 2.33-6.14 6.188-11.351 9.687-16.84a42.984 42.984 0 004.65-35.254c-1.591-6.4-3.53-12.773-8.178-17.686-4.398-4.65-10.324-6.945-16.546-7.905-14.061-2.169-27.066 2.78-36.643 13.183-7.146 7.761-12.427 18.75-11.468 29.485zm53.791 56.277c.911 2.965.72 4.173-1.814 5.832-2.691 1.762-2.506 2.23.235 4.176-1.892 2.211-4.277 4.132-7.316 4.162-1.592.015-5.379-2.068-5.918.604-.604 2.987 4.734 2.431 6.237 2.28a13.674 13.674 0 004.253-1.068c1.245-.562 2.675-2.194 4.131-2.11-.248 4.503-2.12 5.287-6.398 6.511-5.626 1.61-11.343.484-16.865-.95a25.844 25.844 0 00-4.516-.908c-.54-.04-2.504.303-3.013-.323-1.366-1.68 1.07-3.5-.571-5.579-1.467-1.858-3.09-2.575-1.949-5.315.671-1.61 1.566-1.815 1.326-3.645-.173-1.32-1.185-1.761-.792-3.313 10.602 6.041 22.06 3.02 32.97-.354zM75.56 81.742a44.797 44.797 0 01.73-9.003c.626-2.725 2.67-3.362 2.956-.218.254 2.798-1.73 5.019-2.113 7.687-.256 1.779-.216 6.026 2.464 5.822 3.031-.232 1.849-5.157 2.084-6.982.23-1.757 2.146-7.599 5.024-5.02 1.334 1.196.565 6.317.467 7.927-.2 3.272-.96 16.432-5.795 16.33-2.807.642-7.494 1.251-10.214-.04-2.474-1.172-2.395-4.173-2.756-6.544-.82-5.348-2.726-13.193.739-17.967 2.072-2.856 3.139-1.039 2.617 1.718-.46 2.434-1.413 7.529.527 9.632 2.606 2.818 3.302-1.45 3.27-3.342zM73.067 102.9c.921-.634 3.546-.093 4.583-.15 1.378-.075 3.083-.655 4.438-.48 4.81.635.256 10.766-.503 13.838-.841 3.405-1.65 6.808-2.363 10.241-.182.873-.262 3.837-1.338 4.286-1.279.536-2.047-.274-2.178-1.49-.487-3.794-.251-7.559-.894-11.362-.596-3.492-1.342-6.952-2.127-10.406-.446-1.94-1.267-3.34.38-4.473zM52.96 46.02c8.458-8.508 21.983-12.903 33.754-10.15 6.68 1.562 12.548 4.817 16.081 10.803a51.838 51.838 0 016.695 21.76c.594 6.642-.093 13.311-3.105 19.343-3.274 6.555-8.527 11.823-11.413 18.636a84.735 84.735 0 00-3.443 10.413c-.855 3.077-1.106 6.89-2.499 9.75-.961 1.978-5.067 5.594-6.407 2.125-.851-2.188.639-6.565 1.242-8.677.97-3.416 1.858-6.848 2.547-10.335.36-1.819.384-3.786.85-5.574.332-1.264 1.192-2.392 1.404-3.65.273-1.65-.463-3.549-.3-5.302a21.413 21.413 0 01.86-4.004c.773-2.642 1.92-5.159 2.672-7.813 1.06-3.742.016-5.772-1.142-9.283-.67-2.03-1.51-3.486-3.653-4.097-2.86-.817-3.797.333-5.79-2.191-1.428-1.8-1.941-2.105-4.1-1.187-1.813.771-2.947 1.692-4.953 1.994-1.616.245-2.195-.024-3.593 1.11a15.863 15.863 0 00-2.336 2.93c-.841 1.108-2.321 1.994-3.062 3.036-1.519 2.128-.046 6.254.34 8.729.6 3.83 1.296 7.647 2.133 11.433 1.695 7.651 4.2 14.986 5.162 22.792.348 2.803 1.875 8.463.528 11.103-1.327 2.603-4.921.516-7.238-.13 5.506-16.219-11.669-30.83-18.722-43.556-7.363-13.27-2.892-29.563 7.485-40.004z"/><path data-name="Path 98" d="M34.808 103.698c-3.165-2.448-7.049 4.086-6.424 6.822.636 1.09.275 2.932 2.284 2.308.836-.257 1.79-2.17 2.207-2.74 1.25-1.712 4.43-4.46 1.933-6.39z"/><path data-name="Path 99" d="M31.559 38.026c.532-2.497-5.844-4.84-8.013-4.404-4.714.947 6.726 10.436 8.013 4.404z"/></g></svg>