<svg xmlns="http://www.w3.org/2000/svg" width="132.035" height="115.594" viewBox="0 0 132.035 115.594"><path data-name="Path 89" d="M61.577 29.352c-4.46 4.467-9.644 8.43-13.205 13.69-1.142 1.686-3.942 4.96-3.445 7.13.426 1.853 2.947 3.16 4.705 2.896 4.637-.693 6.844-9.483 11.45-9.758a117.753 117.753 0 00-3.983 4.257c-4.17 4.67-8.921 8.555-13.496 12.807-4.528 4.209-8.093 9.068-12.228 13.612a43.864 43.864 0 00-9.247 16.386c-1.802 5.554 1.278 10.6 4.89 14.692 3.507 3.983 8.11 6.312 13.528 5.171 5.583-1.179 9.397-5.646 13.442-9.288C63.502 92.38 70.436 81.6 79.624 72.77c4.744-4.56 9.84-8.876 14.01-14.001 4.123-5.064 7.568-10.692 11.685-15.772 2.09-2.58 3.71-4.388 4.775-7.58a49.81 49.81 0 001.928-8.55c.835-5.673-1.913-10.01-6.094-13.742C96.269 4.5 84.432 8.07 75.553 15.63c-4.967 4.222-9.375 9.114-13.976 13.721zm-6.278 11.824c-.923 2.497-1.564 3.307-4.668 5.822a12.328 12.328 0 014.669-5.823zM37.694 72.058c.532-1.061.813-1.737 1.886-1.784-.126.999-.81 1.35-1.883 1.786zm24.498 14.978c-2.147 2.56-4.334 5.082-6.613 7.534-3.824 4.109-8.477 9.81-13.833 11.913-7.096 2.787-16.953-3.914-15.82-11.703 4.863 7.066 9.654 12.27 18.567 7.864 4.572-2.255 7.631-6.456 11.098-10.055 3.76-3.903 7.618-7.722 11.007-11.96.38 2.025-3.09 4.842-4.403 6.41zM78.67 68.381a49.99 49.99 0 0110.987-11.896c-2.267 5.27-7.309 7.945-10.984 11.898zm10.076-17.53c-9.774 9.253-18.552 19.717-27.706 29.6-4.665 5.037-9.207 10.238-14.049 15.106-3.428 3.446-7.87 7.353-12.762 4.091-10.857-7.243-1.221-16.94 4.958-23.16 9.074-9.132 17.34-19.222 26.926-27.822 3.289-2.952 8.61-8.44 13.546-7.392 7.437 1.576.047 6.57-2.57 8.76q-7.593 6.364-14.6 13.385c-3.158 3.176-10.242 8.507-7.536 13.785 3.413 6.66 9.303-2.883 11.347-5.525a127.702 127.702 0 0112.976-14.09c3.735-3.565 9.943-8.525 11.434-13.631 1.188-4.072-1.888-9.536-5.828-10.913-8.377-2.928-16.969 3.485-23.272 9.738 1.911-5.11 7.433-9.636 11.134-13.38 6.696-6.773 18.726-18.112 27.29-7.989 7.427 8.78-4.999 23.487-11.285 29.438zm-7.6-13.843c3.238-.848 3.238-.848 5.586 2.503zM62.07 69.561a13.09 13.09 0 01-3.572 4.706c.336-3.012 2.117-3.715 3.575-4.703zM88.2 11.713c4.497-1.741 9.59-.297 13.41 2.384 4.054 2.848 7.712 7.011 7.114 12.166-.622 5.364-2.502 10.433-6.526 14.178 3.822-7.93 6.719-17.443-.99-24.15-7.959-6.927-18.224-1.302-25.164 4.45 1.594-4.225 8.18-7.48 12.157-9.024z" fill="#ff5d22"/></svg>