<svg xmlns="http://www.w3.org/2000/svg" width="284.917" height="270.591" viewBox="0 0 284.917 270.591"><g data-name="Group 164" fill="#373e48"><path data-name="Path 87" d="M7.83 142.354c-2.264.514-4.919 1.28-3.605 4.788.11.303-.224.778-.362 1.172-1.125 3.108-.995 3.57 2.196 4.085a66.39 66.39 0 0113.786 3.895 25.771 25.771 0 004.868 1.382 30.455 30.455 0 017.96 2.726 86.044 86.044 0 0014.108 5.572 67.639 67.639 0 019.174 3.163c12.087 5.405 24.74 9.312 37.04 14.15 8.113 3.19 16.73 5.03 24.605 8.822a110.542 110.542 0 0017.422 6.352c6.508 1.881 12.837 4.165 19.117 6.665 4.57 1.819 9.156 3.658 13.866 5.05 5.02 1.484 7.525-.365 8.156-5.452a39.991 39.991 0 012.034-7.743c1.876-5.605 3.558-11.257 5.141-16.957 2.972-10.702 6.408-21.275 9.633-31.906 3.752-12.378 7.03-24.906 11.655-37.008 2.61-6.827 4.209-13.98 7.075-20.747a123.93 123.93 0 006.918-19.86c1.784-7.625 3.18-15.33 5.57-22.812.689-2.159-.76-3.734-2.075-5.234-2.135-1.839-3.506-1.86-5.784-.162a42.308 42.308 0 01-7.496 4.717c-9.963 4.577-19.78 9.441-29.371 14.76a76.943 76.943 0 01-8.06 3.684c-8.322 3.43-16.665 6.825-24.852 10.558-6.265 2.856-12.302 6.212-18.447 9.33-3.764 1.91-7.844 3.13-11.49 5.312-5.925 3.548-12.465 5.83-18.548 9.11-11.49 6.19-23.712 10.898-35.176 17.226-12.293 6.786-24.977 12.871-37.812 18.583-5.638 2.503-11.133 5.395-17.246 6.779zm161.405 63.956a5.272 5.272 0 01-4.211-.245c-5.74-2.308-11.541-4.469-17.299-6.735-3.801-1.496-7.74-2.521-11.635-3.715a219.36 219.36 0 01-21.392-7.769c-4.422-1.876-8.999-3.229-13.483-4.84-8.598-3.083-17.167-6.237-25.74-9.378-11.868-4.348-23.427-9.509-35.54-13.194-2.394-.73-4.525-2.292-6.896-3.116-7.285-2.537-14.626-4.905-21.95-7.336-.4-.133-.816-.232-1.2-.398a1.38 1.38 0 01-.913-1.673c.193-.939.941-.962 1.645-.847 4.31.707 8.557 1.69 12.802 2.735 14.004 3.435 27.04 9.6 40.614 14.24 13.457 4.599 26.593 10.061 40.032 14.688 4.378 1.507 8.908 2.605 13.415 3.704a66.332 66.332 0 0110.493 3.192c10.61 4.553 21.77 7.711 32.19 12.719 3.6 1.725 7.687 3.098 9.068 7.968zm48.967-157.18c.968.964.672 1.983.515 2.906-1.836 10.83-3.828 21.655-7.913 31.885-3.818 9.55-6.865 19.332-10.078 29.08-5.772 17.505-10.544 35.307-16.096 52.872-2.416 7.645-3.941 15.507-6.192 23.176-1.445 4.928-3.463 9.69-5.419 15.054-2.812-3.655-2.548-6.494-1.11-9.789 5.413-12.402 9.173-25.376 13.002-38.338 4.3-14.564 9.199-28.95 13.585-43.49 5.038-16.7 9.79-33.486 14.69-50.23.947-3.241 1.932-6.473 3.009-9.672.412-1.242.64-2.704 2.004-3.453zM35.148 137.543c.815.744 1.614 1.824 2.894 1.085 1.168-.676 1.07-1.891.808-3.027-.53-2.283.681-3.526 2.63-4.107a21.404 21.404 0 006.378-3.208c2.262-1.642 5.556-.364 7.342-3.393 1.393-2.358 4.652-2.404 6.961-3.715 1.616-.918 3.105-1.34 4.152.903a3.91 3.91 0 001.875 1.61 1.993 1.993 0 002.952-2.181c-.16-1.621-1.66-3.244-.574-4.805.99-1.423 3.064-1.2 4.533-2.05 1.695-.981 3.53-1.719 5.287-2.596.886-.439 1.732-1.033 2.78-.695 1.748.561 2.887-.06 3.917-1.546 1.533-2.215 4.318-2.46 6.483-3.695.816-.465 1.628-.045 2.318.528.76.626 1.57 1.196 2.297 1.857.863.779 1.728 1.569 2.975 1a2.232 2.232 0 001.276-2.833c-1.517-4.622 1.393-6.136 4.903-7.37a7.473 7.473 0 003.026-1.432c1.32-1.306 2.572-1.79 4.457-.646 1.509.916 3.136.535 3.078-1.83-.043-1.73 1.09-2.503 2.393-3.13 1.268-.61 2.605-1.077 3.869-1.697 1.764-.864 3.224-.82 4.304 1.066.416.726.933 1.528 1.975 1.122 1.097-.426 2.213-1.188 2.005-2.426-.652-3.89 1.924-5.102 4.756-6.315 1.544-.661 2.947-1.646 4.45-2.41.877-.445 1.943-.925 2.573.285 1.416 2.744 3.16.576 3.26-.29.414-3.593 3.278-3.704 5.638-4.613 1.052-.403 2.143-.708 3.182-1.143 1.842-.771 3.44-1.14 4.572 1.185a2.023 2.023 0 002.805 1.151 2.45 2.45 0 001.483-2.76c-.43-2.75 1.163-3.909 3.381-5.074 2.904-1.526 6.156-1.988 9.04-3.46 1.053-.537 1.824.113 2.744.463 2.42.924 2.976.58 2.705-2.04a1.926 1.926 0 011.256-2.271c2.13-1.09 4.248-2.2 6.399-3.251 1.298-.634 2.422-1.196 3.152.97.47 1.395 2.184.977 3.402.713a2.554 2.554 0 002.057-2.37c.617-4.18 2.21-5.886 6.167-6.127 1.537-.094 2.543-.232 3.411-1.728.988-1.702 1.205-1.577 6.517-3.303-1.213 3.868-2.438 7.492-3.494 11.171q-4.795 16.63-9.48 33.29c-1.942 6.9-3.542 13.895-6.254 20.574a59.122 59.122 0 00-2.832 9.278c-1.917 8.554-5.472 16.566-7.998 24.915-1.754 5.793-3.662 11.555-5.07 17.435-1.914 7.985-4.982 15.537-8.004 23.115a250.819 250.819 0 00-2.249 5.913c-1.046 2.828-3.368 3.943-6.079 2.646-10.426-4.983-21.57-8.105-32.207-12.548a89.51 89.51 0 00-14.535-4.34c-4.948-1.134-9.643-3.027-14.523-4.36-4.597-1.256-9.009-3.187-13.52-4.769-12.068-4.232-23.919-9.047-36.059-13.096-9.334-3.114-18.305-7.29-27.92-9.609-3.674-.886-7.341-1.8-11.012-2.7 2.935-1.974 5.493-4.168 8.986-3.852a2.548 2.548 0 002.089-1.268c1.722-2.108 4.459-2.28 6.658-3.48 1.4-.769 2.325.428 3.26 1.284z"/><path data-name="Path 88" d="M93.404 139.513c7.978 1.598 16.09 2.616 23.793 5.48 8.274 3.074 17.166 4.42 24.914 8.971a10.348 10.348 0 001.976.741c3.617 1.217 4.764.636 5.585-3.2a51 51 0 012.87-9.68 104.476 104.476 0 004.534-12.677 67.175 67.175 0 014.887-12.525 121.332 121.332 0 007.056-17.134 12.695 12.695 0 00.755-3.256c.117-2.057-.85-2.799-2.915-2.319a6.561 6.561 0 00-2.31.98c-2.99 2.154-6.387 3.55-9.616 5.254-7.449 3.932-14.774 8.142-22.428 11.625-7.528 3.424-15.42 6.037-22.906 9.614-7.337 3.506-14.768 6.814-22.124 10.28-2.569 1.21-2.806 3.47-.343 5.62a23.927 23.927 0 006.272 2.226zm65.183-22.8c-2.66 3.798-3.966 8.052-5.264 12.34a183.796 183.796 0 01-6.68 17.754c-1.193 2.849-1.638 3.101-4.429 1.862-9.153-4.076-19.044-5.879-28.419-9.313-4.283-1.568-9.09-1.7-13.65-2.52-.77-.138-1.73.059-2.262-1.176 1.354-1.282 3.201-1.473 4.908-1.716a28.474 28.474 0 008.737-2.966c8.16-4.077 16.268-8.26 24.515-12.164 4.937-2.336 10.318-3.63 15.186-6.214 1.484-.788 2.954-1.58 4.417-2.414 1.67-.95 3.202-2.249 5.528-2.682a15.189 15.189 0 01-2.588 9.204zm-63.568 14.654c8.835-3.27 17.45-7.072 25.97-11.067a136.554 136.554 0 0112.693-5.575 19.15 19.15 0 005.445-3.122 24.578 24.578 0 017.807-4.105c5.035-1.564 9.513-4.188 14.096-6.644.618-.332 1.182-.762 1.804-1.087.5-.264 1.125-.385 1.539.056a1.02 1.02 0 01-.197 1.504c-1.919 1.404-3.39 3.296-5.54 4.493-6.414 3.577-13.228 6.234-20.002 8.968a95.741 95.741 0 00-11.333 5.562 204.64 204.64 0 01-20.196 9.491c-4.2 1.808-8.82 2.736-13.108 4.498a4.781 4.781 0 01-3.418.03 8.666 8.666 0 014.436-3.012z"/></g></svg>