<svg xmlns="http://www.w3.org/2000/svg" width="145.951" height="160.875" viewBox="0 0 145.951 160.875"><path data-name="Path 90" d="M124.504 133.244c4.581-1.486 8.361-4.328 12.308-6.9 2.062-1.341 3.743-3.254 6.167-4.055.93-.307 1.2-1.15 1.461-1.99a10.537 10.537 0 00.434-4.786 19.412 19.412 0 01.758-8.892c.745-2.462.091-4.549-.989-6.782-1.946-4.026-5.081-7.191-7.71-10.659-3.165-4.173-6.542-8.239-9.865-12.32-2.508-3.08-5.6-5.642-7.785-9.007a39.3 39.3 0 00-3.422-4.671c-4.755-5.376-9.829-10.43-14.227-16.173-3.717-4.853-7.272-9.818-10.88-14.744-3.677-5.021-7.073-10.249-11.477-14.7-3.717-3.761-6.449-8.3-9.722-12.416a3.547 3.547 0 01-.867-3.252C69.13-.039 68.539-.426 66.665.44a81.048 81.048 0 00-6 3.088 3.241 3.241 0 01-4.314-.561c-2.508-2.3-5.4-2.513-8.723-1.691-4.028 1-5.437 4.04-7.053 7.461-2.656-2.566-5.275-.987-7.945.2-3.454 1.54-4.1 4.713-4.681 7.919a1.077 1.077 0 00.744 1.27 1.012 1.012 0 001.13-.431c.847-1.108 1.6-2.289 2.471-3.377 3.527-4.4 5.187-4.414 8.741-.108 1.47 1.781 1.472 2.325-.491 3.533-1.914 1.177-4 2.065-5.957 3.184-2.334 1.336-2.308 1.386-4.488-.2a20.082 20.082 0 00-7.771-3.776c-3.588-.729-6.312 1.537-6.217 5.183a13.617 13.617 0 01-.758 3.432c-.628-.137-1.035-.256-1.451-.311-6.845-.919-10.872 1.873-12.835 7.16a8.66 8.66 0 00.9 7.947 4.471 4.471 0 001.123 1.127 1.117 1.117 0 001.462-.208.783.783 0 00.124-1.152c-2.251-2.165-.809-4.47-.152-6.614a6.719 6.719 0 0110.186-3.587c2.585 1.664 2.7 2.546.379 4.549-2.916 2.52-6.382 4.372-8.935 7.341a2.256 2.256 0 01-.809.521c-2.612 1.145-3.636 3.008-3.228 5.925a5.444 5.444 0 01-.752 4.331c-1.81 2.258-1.806 2.584-.064 4.728.943 1.16 2.189 2.021 2.932 3.4 3.977 7.39 8.891 14.2 13.688 21.043 6.038 8.621 12.1 17.259 18.848 25.348 10.261 12.3 19.543 25.381 30.15 37.394 4.267 4.832 7.951 10.169 12.7 14.589 2.178 2.029 3.884 2.361 6.317.78a114.928 114.928 0 007.352-5.2 63.442 63.442 0 0110.688-7.163 11.182 11.182 0 003.339-2.494 34.006 34.006 0 019.454-7.178c2.654-1.414 4.845-3.66 7.735-4.598zm2.824-5.26c4.5-2.3 7.918-6.129 12.436-8.569-1.746 2.588-9.109 7.808-12.436 8.567zm-21.075 7.413a170.6 170.6 0 01-18.9 11.672c-.426.234-.795.776-1.655.24 2.263-1.593 4.281-3.42 6.629-4.586 5.708-2.834 10.368-7.238 15.92-10.273 2.917-1.6 5.831-3.193 8.77-4.746a8.116 8.116 0 003.289-2.51 1.914 1.914 0 01.637-.716c4.307-2.007 7.748-5.393 11.983-7.507.16-.08.4.011.927.04-1.6 1.855-3.569 2.894-5.347 4.186-7.133 5.185-15.152 8.998-22.253 14.2zm30.02-16.522a4.863 4.863 0 013.237-2.523 5.755 5.755 0 01-3.237 2.523zM45.843 8.912a11.449 11.449 0 011.477-2.109c2.352-2.861 3.913-2.9 6.953-.106-2.185 2.543-5.212 4.107-7.552 6.452-.682.684-1.359.46-1.955-.168-.883-.931-1.754-1.874-2.63-2.812 1.709.766 2.852.472 3.707-1.257zm.841 19.661c.027.593-.229 1.019-.881 1.04-.264.009-.372-.2-.312-.46a1.3 1.3 0 01.8-.911c.139.109.388.215.393.331zm-28.163-1.975c1.181-1.044.491-2.443.8-3.649.53-2.1 1.157-2.508 3.185-1.879a15.75 15.75 0 014.555 2.37 4.838 4.838 0 01.734.775 1.208 1.208 0 01-.551 1.28c-1.92 1.372-3.845 2.739-5.806 4.051-1.132.757-1.768-.236-2.445-.871-.607-.567-1.492-1.175-.472-2.077zm-8.3 29.79a8.205 8.205 0 01-3.242-4.147c1.934.712 2.265 2.685 3.241 4.147zm-3.32-4.3a3.954 3.954 0 01-1.44-2.506A2.815 2.815 0 016.9 52.09zm-2.094 2.238c7.129 8.4 12 18.249 18.206 28.029-3.739-2.997-17.652-24.286-18.207-28.027zm7.435 4.907a22.727 22.727 0 013.272 4.3c3.5 5.022 6.671 10.315 10.535 15.038 5.164 6.312 10.157 12.759 15.335 19.057 5.868 7.138 11.649 14.353 17.674 21.357 4 4.654 7.027 9.982 10.527 15.075-3.974-4.495-8.106-8.862-11.879-13.52-4.465-5.51-9.141-10.832-13.76-16.206-2.865-3.334-5.8-6.612-8.679-9.927-2.738-3.151-5.078-6.651-7.541-10.036-5.559-7.638-10.088-15.933-15.19-23.863-.225-.342-.595-.643-.295-1.273zm12.671 26.478c-.5-.012-.709-.349-.8-.79-.025-.268.133-.466.249-.356a6.352 6.352 0 01.746.949c.007.018-.131.201-.196.199zm1.716 2.5c2.421 1.829 3 2.611 4.307 5.8a22.152 22.152 0 01-4.308-5.797zm52.257 64.717c-3.248-3.983-7.32-7.245-10.024-11.711-1.505-2.485-4.048-4.09-5.82-6.429-5.187-6.845-10.306-13.782-16.019-20.176A216.273 216.273 0 0132.78 96.039c.665.547 1.36 1.06 1.985 1.648a20.691 20.691 0 011.758 1.88c7.745 9.349 15.3 18.864 23.277 28.009 5.937 6.806 11.762 13.689 17.341 20.785.68.864 1.289 1.664 2.651 1.259 1.167-.347 1.449.529 1.527 1.493.1 1.173.226 2.344.375 3.845a5.254 5.254 0 01-2.809-2.027zm1.141-10.791c-2.15-2.813-4.117-5.765-6.173-8.649-3.109-4.362-6.455-8.562-9.2-13.172-1.687-2.835-4.4-4.691-6.455-7.158-3.16-3.8-6.294-7.628-9.248-11.586a41.977 41.977 0 00-5.893-6.353 21.4 21.4 0 01-4-5.012 59.724 59.724 0 00-7.6-9.955c-4.72-5.068-8.186-11.029-12.338-16.493-3.9-5.14-7.349-10.579-10.891-15.957-1.434-2.178-1.408-2.194.265-4.1A14.933 14.933 0 0112.1 40.51a29.357 29.357 0 005.17-3.828c1.859-1.729 2.766-1.441 3.673 1a3.016 3.016 0 01.335 2.041.7.7 0 01-.859.467c-1.946-.429-3.773-.13-4.843 1.62a6.136 6.136 0 00.059 6.188 3.765 3.765 0 005.054 1.5c2.4-1.074 3.768-3.121 4.844-5.4.234-.495.39-1.314-.058-1.487-1.884-.731-1.207-2.282-1.246-3.551a11.226 11.226 0 00-1.546-4.869c-.544-1.045-.318-1.63.636-2.4 1.944-1.576 4.216-2.553 6.3-3.864a1.437 1.437 0 012.341.744c.443 1.027 1.162 2.447-.447 2.947-2.107.656-2.378 2.341-2.7 3.978a3.246 3.246 0 001.542 3.625 3.521 3.521 0 003.938-.5c1.867-1.324 2.272-3.553 1.261-5.863s-.546-4.877-1.044-7.289c-.12-.58.564-.847 1.018-1.113 2.677-1.567 5.61-2.693 8.009-4.746.618-.529 1.178-.207 1.485.546.663 1.631.252 2.505-1.6 3.318a4.848 4.848 0 00-2.72 4.665c.257 2.232 2.278 4.565 4.174 4.817a3.107 3.107 0 002.659-.863c1.807-1.694 2.654-5.365 1.352-7.43-1.5-2.38-.389-5.041-1.172-7.469-.109-.337.371-1.038.759-1.334 2.476-1.89 4.631-4.17 7.25-5.888 1.131-.742 1.846-.647 2.623.551a7.942 7.942 0 01.588 7.908c-.766-.073-.5-.589-.564-.937a1.548 1.548 0 00-1.538-1.387c-1.041-.053-1.506.69-1.794 1.552a4.788 4.788 0 002.092 5.307 4.91 4.91 0 005.529-1.443c.908-1.438 1.793-3 .584-4.782-.764-1.126-.659-2.441-.7-3.74A11.039 11.039 0 0061.38 8.77c-.444-.942-.094-1.573.82-2.1 2.58-1.48 3.467-1.221 5.38 1.134 3.454 4.249 6.7 8.682 10.554 12.59 4.187 4.244 7.138 9.413 10.659 14.153 5.768 7.764 11.363 15.657 17.791 22.909 1.607 1.813 1.6 1.862-.408 3.393-1.707 1.3-3.485 2.513-5.2 3.812-1.168.889-2.1.834-2.988-.4a104.874 104.874 0 00-3.5-4.627c-1.153-1.432-1.692-2.761.085-4.124a1.066 1.066 0 00.27-1.4c-3.446 1.218-3.449 1.221-5.845-1.864-.527-.678-.991-1.406-1.539-2.066-2.27-2.732-2.385-2.344 1.032-4.591 1.077-.707 2.47-.88 3.329-1.915.459-.553 1.114-1.233.481-1.986-.507-.6-1.236-.218-1.771.1-1.658.978-3.332 1.947-4.894 3.066a1.74 1.74 0 01-2.755-.413c-1.1-1.459-2.093-2.995-3.173-4.467-1.792-2.443-1.8-2.43.329-4.777.52-.572 1.041-1.278.4-1.962-.511-.545-1.3-.21-1.745.237-1.379 1.392-2.724 1.555-4.571.718-1.313-.6-2.093.505-1.336 1.925.479.9.338 1.268-.36 1.837-2.44 1.985-5.322 3.226-7.987 4.83-.89.535-1.582-.008-2.379-.381-1.331-.624-2.113-.18-1.715 1.03.59 1.8-.227 2.556-1.527 3.339-1.2.721-2.337 1.536-3.48 2.341-1.375.968-2.71 1.94-4.132.045a.877.877 0 00-1.161-.232.96.96 0 00-.245 1.417c1.1 1.812.142 2.713-1.352 3.568-1.675.96-3.3 2.019-4.878 3.135-1.409 1-2.652 1.373-3.885-.237a3.8 3.8 0 00-1.275-.94.87.87 0 00-1.144.277 1.164 1.164 0 00-.165.882 6.92 6.92 0 00.634 1.1c1.056 1.986 1.026 2.172-.684 3.417-1.216.886-2.421 1.794-3.692 2.594-1.9 1.193-2.053 1.122-3.428-.607-.6-.749-.918-1.74-1.827-2.21a1.251 1.251 0 00-.9-.059.6.6 0 00-.289.8 17.092 17.092 0 001.024 2.356c.844 1.469.612 2.985.684 4.572.064 1.387 2.676.167 3.593 1.8a44.168 44.168 0 003.5 4.617 3.95 3.95 0 011.05 2.958c-.085.64-.151 1.482.706 1.524 1.927.093 2.38 1.654 3.094 2.913 1.216 2.144 2.1 4.517 3.538 6.483a75.052 75.052 0 005.779 6.381c1.083 1.165 2.54 2.029 2.9 3.767a1.1 1.1 0 00.553.743c2.817.8 3.919 3.577 6.02 5.2 1.119.863 1.874 1.84.441 3.148a1.053 1.053 0 00-.108 1.682 1.157 1.157 0 001.5.1c2.1-1.736 3.3-.229 4.535 1.19.425.486.829.989 1.256 1.473 1.844 2.089 1.837 2.081.226 4.462a3.4 3.4 0 00-.668 1.422c-.1.914.286 1.428 1.351 1.083 1.158-.374 1.974-2.173 3.363-1.226 1.014.692 1.63 1.962 2.439 2.961q1.625 2 3.275 3.982a10.611 10.611 0 00.886.938c1.173 1.1-.583 3.989 2.852 3.977 1.712-.007 2.756 2.51 4.15 3.835.563.535 1.217 1.024 1.994.5.671-.454.307-1.18.194-1.777a5.2 5.2 0 00-1.63-2.724 8.8 8.8 0 01-2.321-2.565c2-1.614 4.073-3.23 6.081-4.919 1.263-1.062 2.411-1.223 3.7-.054.623.562 1.422 1.244 2.3.768.942-.51.717-1.558.362-2.3-.712-1.493.191-2.18 1.187-2.894.086-.062.19-.1.281-.155 3.446-2.154 3.443-2.152 6.314.871a38.22 38.22 0 001.824 1.822 1.522 1.522 0 001.752.47c.835-.438.658-1.3.517-2.02a6.251 6.251 0 00-2.46-3.676c-1.251-.979-.863-1.781-.021-2.638a18.739 18.739 0 015.155-3.245 1.754 1.754 0 012.08.4 2.576 2.576 0 002.9.766c-.113-4.416-.153-4.468 3.679-7.369 4.365-3.305 3.12-3.514 6.636.959a264.62 264.62 0 004.471 5.508c.574.693 1.31 1.279 2.214.627a1.831 1.831 0 00.319-2.608 9.464 9.464 0 00-1.5-1.66c-1.116-1.162-2.317-2.253-3.344-3.488-1.388-1.671-2.77-3.41-1.143-5.742a1.083 1.083 0 00-.108-1.472 1.069 1.069 0 00-1.48.069c-1.54 1.566-2.409.432-3.292-.733q-2.532-3.333-5.051-6.677c-.914-1.207-1.026-2.262.34-3.3.814-.619 2.054-1.544 1.265-2.59-1.044-1.387-2.08.012-2.969.651a1.817 1.817 0 01-2.8-.376c-1.078-1.34-2.1-2.722-3.168-4.072-.847-1.073-.6-1.943.386-2.774 1.063-.9 2.064-1.875 3.124-2.779a4.39 4.39 0 001.318-1.385c.23-.494.439-1.024 0-1.485-.355-.374-.834-.2-1.2.005-1.209.666-2.557 1.12-3.31 2.457a8.631 8.631 0 01-1.474 1.694c-.779.791-1.5.641-2.16-.2q-2.1-2.653-4.23-5.284a1.453 1.453 0 01.307-2.434c2.374-1.663 4.73-3.352 7.1-5.017.838-.588 1.445-.026 1.94.539 1.416 1.617 2.88 3.2 4.149 4.934 2.674 3.645 5.627 7.053 8.507 10.53 6.579 7.942 13.012 16.007 18.781 24.573 1.045 1.551.939 2.252-.792 3.8a86.367 86.367 0 01-11.668 8.592c-3.907 2.456-7.867 4.81-11.583 7.587a71.263 71.263 0 01-9.89 6.043c-6.046 3.136-11.263 7.508-17.025 11.057a71.858 71.858 0 01-7.029 3.943c-2.33 1.086-2.757 1.076-4.356-1.015zm-59.011-96.69a.968.968 0 01-.915 1.116 1.511 1.511 0 01-1.94-1.206c-.185-.751-.088-1.693.867-1.727 1.102-.039 1.433 1.113 1.987 1.82zm52.989 71.9a1.781 1.781 0 01.523-2.381c1.611-1.23 3.242-2.435 4.868-3.645a1.645 1.645 0 012.324.131q3.793 3.686 7.532 7.429c.895.9.71 1.812-.439 2.276a30.9 30.9 0 00-5.788 3.4 1.907 1.907 0 01-2.4.2c-2.377-2.09-5.338-3.661-6.435-6.944a2.2 2.2 0 00-.186-.461zm1.517-50.917a36.16 36.16 0 01-7.186 4.134 1.94 1.94 0 01-2.333-.6c-1.439-1.852-2.816-3.753-4.2-5.645-.746-1.018-.368-1.765.6-2.383 2.158-1.378 4.318-2.755 6.446-4.179a1.819 1.819 0 012.771.458c1.392 1.755 2.784 3.511 4.2 5.251.883 1.109.941 1.996-.299 2.969zm3.747 1.487c1.607 2.016 3.23 4.019 4.813 6.053a1.19 1.19 0 01-.016 1.751c-2.6 1.9-5.253 3.709-7.573 5.332a1.709 1.709 0 01-2.082-.536 484.807 484.807 0 01-4.944-5.944c-.908-1.1-.542-1.892.58-2.62 2.163-1.4 4.276-2.883 6.4-4.345a1.842 1.842 0 012.821.314zM64.446 71.29a3.478 3.478 0 01.229.6 1.489 1.489 0 01-.732 1.648c-2.213 1.49-4.109 3.419-6.619 4.52-1.217.534-1.994.451-2.746-.6-1.123-1.569-2.351-3.068-3.4-4.682-1.223-1.876-1.059-2.684.826-4.02 1.923-1.363 3.946-2.583 5.919-3.876a1.324 1.324 0 011.985.18 55.217 55.217 0 014.537 6.235zm-5.976 8.512c2.37-1.652 4.412-3.759 7.023-5.074.509-.256 1.081-.426 1.505-.023a49.981 49.981 0 015.816 7.343 1.46 1.46 0 01-.563 1.9q-2.941 2.244-5.9 4.467a1.591 1.591 0 01-2.305-.237 338.328 338.328 0 01-5.691-6.1 1.432 1.432 0 01.114-2.271zm12.034 7.832c.248-.2.478-.426.727-.627 3.346-2.714 3.493-2.687 6.2.839.845 1.1 1.749 2.153 2.6 3.246.325.416.583.884.763 1.162a1.587 1.587 0 01-.813 1.789c-1.212.872-2.457 1.7-3.7 2.525-3.43 2.281-3.558 2.368-6.258-.787-3.7-4.325-4.362-4.216.48-8.142zm7.445 10.2c4.609-2.921 4.609-2.921 8.005 1.31a6.883 6.883 0 011.579 2.295 1.827 1.827 0 01-1.02 1.931c-1.051.747-2.1 1.5-3.164 2.225-1.934 1.323-2.829 1.3-4.559-.252a24.809 24.809 0 01-1.7-1.933c-2.835-3.137-2.82-3.244.858-5.575zm7.968-3.187a1.42 1.42 0 01.449-2.213 378.426 378.426 0 016.7-4.469c.458-.3 1.071-.536 1.492-.1a41.289 41.289 0 014.551 5.563 1.17 1.17 0 01-.573 1.515c-2.086 1.516-4.156 3.054-6.253 4.554a2.035 2.035 0 01-3.106-.448c-1.116-1.448-2.185-2.927-3.261-4.401zm5.8-8.41a53.528 53.528 0 01-6.508 4.7c-.913.508-1.768.763-2.571-.216-1.493-1.82-3.1-3.555-4.5-5.441-1.351-1.816-1.232-2.465.516-3.711 2.005-1.43 4.092-2.747 6.149-4.105a7.613 7.613 0 01.763-.4c1-.205 1.487.385 1.932 1 1.508 2.083 2.98 4.192 4.5 6.263a1.207 1.207 0 01-.278 1.911zm-5.586-13.569q-2.437-2.988-4.839-6a1.469 1.469 0 01.464-2.421c2.508-1.645 5.021-3.283 7.516-4.947a1.636 1.636 0 012.515.3q2.371 3.039 4.757 6.068a1.6 1.6 0 01-.18 2.517c-2.581 2.137-5.641 3.471-8.536 5.082a1.5 1.5 0 01-1.694-.598zm2.336-15a40.1 40.1 0 01-8.32 5.465 2.046 2.046 0 01-2.1-.471 38.349 38.349 0 01-4.963-5.914c-.7-.9-.137-1.719.61-2.189 2.818-1.776 5.686-3.471 8.547-5.177a1.451 1.451 0 012.022.372 275.432 275.432 0 014.445 5.925 1.346 1.346 0 01-.238 1.993zm-7.792-9.6c-2.16 1.388-4.345 2.739-6.516 4.11-3.43 2.167-3.4 2.149-5.868-1.154-1.021-1.367-2.217-2.6-3.267-3.949-.547-.7-.928-1.634-.044-2.287a97.792 97.792 0 018.945-5.758c1.247-.4 1.834-.235 2.314.286a48.3 48.3 0 015.058 6.62c.638.99.17 1.63-.619 2.138zm-12.609 6.244a2.872 2.872 0 01.282.572 1.528 1.528 0 01-.763 1.642c-2.231 1.474-4.491 2.9-6.743 4.347a1.293 1.293 0 01-1.928-.488c-1.46-2.1-2.89-4.223-4.318-6.345-.82-1.219-.565-2.156.7-2.94 1.816-1.129 3.579-2.344 5.365-3.524.66-.437 1.363-.792 1.99-.024 1.828 2.242 3.62 4.506 5.418 6.766zm-10.792 7.35a1.45 1.45 0 01-.647 1.829c-2.235 1.455-4.5 2.861-6.736 4.315-1.3.849-2.253.276-2.993-.766-1.351-1.9-2.359-4.045-4.1-5.683-.682-.641-.384-1.343.361-1.863 2.277-1.588 4.535-3.2 6.82-4.781a1.552 1.552 0 012.076-.062 55.312 55.312 0 015.222 7.017zm-11.555 7.106a2.53 2.53 0 01.242.55 1.362 1.362 0 01-.6 1.421c-1.718 1.286-3.454 2.547-5.182 3.819a1.436 1.436 0 01-2.229-.362c-1.421-1.88-2.782-3.8-4.221-5.671a1.564 1.564 0 01.269-2.5c1.631-1.22 3.3-2.386 4.994-3.523a1.56 1.56 0 012.289.344c1.504 1.963 2.969 3.947 4.441 5.928zm-3.833 7.273c.158-.143.3-.35.482-.415 2.1-.732 3.485-3.954 5.655-3.034 2.591 1.1 3.761 4.212 5.419 6.552a1.2 1.2 0 01-.058 1.5c-1.985 2.3-4.688 3.665-6.822 5.345a2.04 2.04 0 01-2.295-1.273c-.973-1.781-1.814-3.649-2.926-5.337-.93-1.407-.517-2.364.548-3.332zm7.359 11.141c1.654-1.364 3.411-2.6 5.044-3.99a1.7 1.7 0 012.758.24q2.6 3.066 5.146 6.176a1.319 1.319 0 01-.1 2 30.43 30.43 0 01-6.484 4.412 1.919 1.919 0 01-1.91-.64c-1.615-1.569-3.287-3.088-4.793-4.756-1.353-1.498-1.245-2.142.339-3.442zm8.727 10.307c1.757-1.4 3.6-2.683 5.4-4.024a1.456 1.456 0 012.232.313c1.526 1.794 3.074 3.569 4.575 5.384.42.509.736 1.323.049 1.692-1.913 1.029-3.363 2.652-5.172 3.8a7.683 7.683 0 01-1.012.436 3.523 3.523 0 01-1.108-.283 20.814 20.814 0 01-5.471-5.344c-.584-.781-.055-1.53.507-1.981zm8.808 8.956c1.428-1.116 2.808-2.293 4.248-3.394.6-.457 1.363-.852 2.072-.346a24.916 24.916 0 015.151 5.5 1.332 1.332 0 01-.471 1.5c-1.415 1.514-3.346 2.256-5.042 3.345a1.616 1.616 0 01-2.032-.454 40.33 40.33 0 01-4.1-4.023c-.692-.873-.684-1.461.174-2.131zm22.452 8.311c-1.171-1.438-2.811-2.308-4.037-3.652-1.732-1.9-1.691-2.456.2-4.156a13.869 13.869 0 013.542-2.414 1.835 1.835 0 012.156.674c2.1 2.425 4.25 4.817 6.248 7.326 1.214 1.525 1.037 2.021-.505 3.11a2.241 2.241 0 01-.274.165c-3.857 1.989-3.701 3.398-7.33-1.056zm4.6-10.015c-1.792-2.2-1.794-2.607.518-4.356 1.712-1.3 3.544-2.431 5.3-3.677.83-.59 1.56-.692 2.231.177q3.35 4.335 6.682 8.682a4.374 4.374 0 01.4.765 1.523 1.523 0 01-.767 1.722 190.502 190.502 0 01-5.313 3.647c-.885.583-1.968.748-2.619-.192-1.803-2.601-4.459-4.354-6.429-6.771zm10.5-8.675c-.816-1-.845-1.933.338-2.7 2.249-1.46 4.505-2.909 6.74-4.39.9-.6 1.8-.885 2.533.134 1.993 2.787 4.307 5.345 5.977 8.362.1.188.2.378.306.566a1.732 1.732 0 01-.644 2 26.752 26.752 0 01-5.789 4.038c-1.459.806-2.784-.033-3.721-1.083-1.987-2.238-3.837-4.605-5.732-6.93zm6.555-9.38a35.893 35.893 0 01-7.682 5.187 1.827 1.827 0 01-2.314-.654 31.671 31.671 0 00-3.389-3.875c-.864-.929-1.094-1.713.212-2.6a59.09 59.09 0 006.354-4.9c1.492-1.346 1.771-1.26 3.115.3 1.192 1.385 2.317 2.826 3.469 4.245.592.71 1.038 1.633.243 2.293zm-7.589-8.755c-1.945 1.668-3.828 3.419-5.865 4.968-1.67 1.27-2.267 1.052-3.763-.582a48.408 48.408 0 01-4.127-5.7c-.611-.9-.633-1.56.256-2.151q3.736-2.485 7.508-4.915c.455-.3 1.065-.571 1.492-.156a32.393 32.393 0 015.115 6.658 1.591 1.591 0 01-.608 1.875zm-10.737 71.182c-1.781 1.18-3.592 2.315-5.4 3.45-.361.226-.811.4-1.188.055a.915.915 0 01.018-1.416 15.516 15.516 0 013.017-2.364 223.631 223.631 0 0022.664-14.048c2.917-1.978 6.356-3.013 9.154-5.173-.792 1.457-2.18 2.133-3.4 2.955-8.258 5.562-16.565 11.045-24.865 16.541z" fill="#e5974f"/></svg>