<svg xmlns="http://www.w3.org/2000/svg" width="27.308" height="27.308" viewBox="0 0 27.308 27.308"><defs><style>.a{fill:#ff5d22;fill-rule:evenodd;}</style></defs><g transform="translate(-127.302 -127.294)"><g transform="translate(127.302 127.294)"><path class="a" d="M21.438,17.471l5.022,2.791a1.65,1.65,0,0,1,.753,2.023,7.476,7.476,0,0,1-9.626,4.562A28.132,28.132,0,0,1,.471,9.731,7.476,7.476,0,0,1,5.033.1,1.652,1.652,0,0,1,7.057.857L9.847,5.88a2.046,2.046,0,0,1-.263,2.388L7.239,10.9a17.2,17.2,0,0,0,9.174,9.174l2.637-2.344a2.046,2.046,0,0,1,2.388-.263Z" transform="translate(-0.009 -0.001)"/></g></g></svg>